<?xml version="1.0" standalone="no"?>
<!DOCTYPE svg PUBLIC "-//W3C//DTD SVG 20010904//EN"
 "http://www.w3.org/TR/2001/REC-SVG-20010904/DTD/svg10.dtd">
<svg version="1.0" xmlns="http://www.w3.org/2000/svg"
 width="512.000000pt" height="512.000000pt" viewBox="0 0 512.000000 512.000000"
 preserveAspectRatio="xMidYMid meet">

<g transform="translate(0.000000,512.000000) scale(0.100000,-0.100000)"
fill="#000000" stroke="none">
<path d="M3868 4753 c-34 -38 -34 -115 -2 -148 24 -23 80 -19 98 7 23 33 21
113 -4 138 -25 25 -72 26 -92 3z"/>
<path d="M3330 4530 c-31 -31 -25 -67 19 -111 44 -44 80 -50 111 -19 31 31 25
67 -19 111 -44 44 -80 50 -111 19z"/>
<path d="M4392 4525 c-16 -13 -35 -38 -42 -55 -11 -28 -11 -34 7 -58 31 -42
75 -42 118 1 27 27 35 43 35 70 0 65 -64 87 -118 42z"/>
<path d="M3870 4400 c-19 -19 -20 -33 -20 -251 l0 -231 138 -140 c152 -155
180 -175 215 -157 29 15 37 28 37 59 0 19 -32 57 -130 155 l-130 130 0 203 c0
202 0 203 -25 227 -29 30 -58 32 -85 5z"/>
<path d="M3107 3992 c-23 -25 -21 -68 3 -92 25 -25 105 -27 138 -4 28 19 30
74 4 97 -27 24 -123 23 -145 -1z"/>
<path d="M4566 3988 c-37 -53 0 -108 73 -108 23 0 51 5 62 11 28 15 42 55 28
82 -17 32 -28 37 -91 37 -48 0 -59 -4 -72 -22z"/>
<path d="M3374 3501 c-61 -37 -79 -86 -48 -129 11 -16 25 -22 51 -22 71 0 132
102 86 142 -30 26 -56 29 -89 9z"/>
<path d="M4382 3510 c-26 -11 -44 -51 -35 -77 13 -39 66 -83 99 -83 70 0 88
73 32 127 -39 36 -64 45 -96 33z"/>
<path d="M1095 3355 c-214 -58 -517 -140 -673 -182 -246 -66 -286 -79 -300
-101 -14 -21 -14 -27 -1 -50 13 -23 42 -33 284 -99 149 -40 446 -121 660 -179
320 -88 402 -107 460 -107 68 -1 181 27 750 184 373 102 471 129 478 129 4 0
7 -96 7 -214 l0 -214 36 8 c19 5 49 4 65 0 l29 -9 0 229 0 229 25 25 c54 54
23 85 -120 125 -504 140 -1210 323 -1255 327 -46 3 -116 -12 -445 -101z"/>
<path d="M3869 3291 c-19 -15 -23 -28 -23 -75 0 -61 12 -80 56 -91 44 -11 78
31 78 94 0 42 -4 53 -26 70 -33 26 -55 26 -85 2z"/>
<path d="M3623 2162 c-69 -25 -125 -65 -158 -112 -18 -25 -40 -43 -64 -51
-157 -50 -265 -167 -294 -317 -10 -53 -15 -61 -54 -88 -49 -33 -105 -109 -123
-168 -8 -25 -11 -69 -7 -119 4 -68 2 -89 -16 -131 -29 -71 -31 -257 -3 -332
28 -75 84 -153 141 -196 43 -32 51 -45 65 -96 22 -78 58 -138 117 -193 46 -43
129 -90 184 -104 14 -3 33 -20 43 -36 26 -44 108 -105 167 -124 69 -23 188
-17 245 13 l41 21 63 -26 c55 -22 75 -25 144 -21 102 6 165 36 232 112 37 41
63 60 106 76 144 54 268 202 268 321 0 18 8 36 22 47 71 57 110 100 132 146
30 62 41 136 28 193 -8 35 -6 53 13 105 73 201 10 428 -149 538 -36 24 -44 36
-50 71 -21 130 -140 257 -283 304 -31 10 -55 24 -58 35 -9 29 -91 99 -143 122
-68 32 -198 31 -267 0 l-51 -23 -49 22 c-69 31 -174 35 -242 11z m190 -143
l27 -12 0 -696 c0 -651 -2 -699 -19 -736 -21 -48 -37 -62 -105 -95 -64 -31
-80 -66 -49 -108 25 -33 74 -40 128 -18 21 9 39 16 41 16 2 0 4 -27 4 -61 0
-59 -1 -60 -35 -75 -65 -27 -158 -12 -208 34 -66 60 -77 190 -21 259 17 21 54
49 83 64 58 28 71 42 71 77 0 30 -42 72 -72 72 -38 0 -124 -46 -167 -89 -49
-49 -89 -126 -98 -186 -3 -25 -9 -45 -13 -45 -3 0 -25 16 -49 36 -79 68 -108
170 -77 276 9 31 16 66 16 77 0 32 -35 61 -73 61 -38 0 -62 -21 -72 -62 -10
-38 -20 -35 -51 11 -33 51 -54 122 -54 187 0 82 4 86 54 58 50 -28 84 -22 111
19 24 37 10 73 -41 108 -51 35 -84 92 -84 145 0 37 35 124 49 124 5 0 16 -18
26 -40 10 -22 26 -47 35 -55 27 -25 79 -16 104 18 l20 28 -27 77 c-30 84 -34
146 -13 205 18 49 61 104 99 128 l32 19 10 -53 c22 -106 89 -197 177 -241 64
-32 110 -34 138 -4 41 44 17 98 -57 128 -45 17 -100 81 -109 125 -18 98 19
179 101 221 54 27 112 28 168 3z m380 -7 c18 -10 45 -37 62 -61 26 -36 30 -52
30 -105 0 -85 -32 -134 -115 -176 -80 -41 -96 -81 -52 -132 35 -42 142 -5 219
74 48 50 93 138 93 185 0 17 4 34 9 37 15 9 103 -76 122 -119 23 -50 24 -155
2 -210 -8 -22 -18 -59 -20 -81 -4 -35 -1 -44 18 -58 25 -17 56 -20 85 -9 9 3
29 33 44 66 l27 60 22 -31 c44 -63 63 -122 64 -199 0 -40 -2 -76 -5 -79 -3 -3
-21 4 -39 15 -64 39 -129 15 -129 -47 0 -33 11 -48 63 -86 48 -35 68 -75 69
-137 0 -48 -25 -108 -48 -116 -7 -2 -17 11 -23 29 -25 72 -88 101 -131 58 -25
-25 -25 -61 0 -128 44 -116 13 -251 -73 -313 -22 -16 -43 -27 -47 -24 -4 2
-10 25 -13 50 -8 58 -38 116 -89 171 -42 46 -130 94 -171 94 -38 0 -70 -32
-70 -68 0 -39 17 -60 68 -82 49 -21 89 -62 109 -112 63 -150 -98 -307 -249
-244 l-35 15 0 708 c0 699 0 708 21 742 27 44 55 67 101 80 60 18 77 75 36
118 -25 27 -63 30 -115 8 -19 -8 -37 -15 -40 -15 -2 0 -3 28 -1 63 3 61 4 62
38 75 44 15 123 8 163 -16z"/>
<path d="M3500 1340 c-30 -30 -25 -73 11 -115 32 -36 47 -93 36 -137 -4 -13
-20 -38 -37 -56 -54 -60 -31 -135 42 -135 25 0 41 10 75 47 79 88 94 212 37
317 -50 92 -118 125 -164 79z"/>
<path d="M4207 1324 c-90 -91 -107 -234 -39 -344 33 -54 87 -93 116 -84 12 3
31 17 44 31 29 31 23 62 -18 109 -53 61 -51 127 6 195 39 47 42 66 13 103 -31
39 -76 36 -122 -10z"/>
</g>
</svg>
