<?xml version="1.0" standalone="no"?>
<!DOCTYPE svg PUBLIC "-//W3C//DTD SVG 20010904//EN"
 "http://www.w3.org/TR/2001/REC-SVG-20010904/DTD/svg10.dtd">
<svg version="1.0" xmlns="http://www.w3.org/2000/svg"
 width="512.000000pt" height="512.000000pt" viewBox="0 0 512.000000 512.000000"
 preserveAspectRatio="xMidYMid meet">

<g transform="translate(0.000000,512.000000) scale(0.100000,-0.100000)"
fill="#000000" stroke="none">
<path d="M2260 3074 c-173 -46 -412 -109 -530 -140 -118 -30 -220 -60 -227
-66 -10 -8 -13 -73 -13 -269 0 -143 3 -259 8 -259 4 0 24 11 45 24 l39 24 44
-25 44 -25 0 217 c0 184 2 216 14 212 8 -3 31 -9 50 -13 l36 -6 0 -304 c0
-300 0 -303 23 -329 20 -23 45 -30 232 -65 397 -76 444 -83 575 -83 127 0 175
8 628 96 181 35 166 3 170 375 l3 308 132 35 132 34 0 30 c0 27 -4 31 -50 42
-27 7 -261 69 -520 137 -258 69 -481 127 -495 130 -15 3 -155 -30 -340 -80z"/>
</g>
</svg>
